<svg width="12" height="12" viewBox="0 0 12 12" fill="none" xmlns="http://www.w3.org/2000/svg">
<path d="M2.76923 0H3.69231V0.923077H4.61538V1.84615H5.53846V4.61538H4.61538V3.69231H3.69231V2.76923H2.76923V0Z" fill="#222222"/>
<path d="M4.61538 5.53846H1.84615V4.61538H0.923077V3.69231H0V2.76923H2.76923V3.69231H3.69231V4.61538H4.61538V5.53846Z" fill="#222222"/>
<path d="M5.53846 5.53846V4.61538H6.46154V5.53846H5.53846Z" fill="#222222"/>
<path fill-rule="evenodd" clip-rule="evenodd" d="M5.53846 6.46154V5.53846H4.61538V6.46154H1.84615V7.38462H0.923077V8.30769H0V9.23077H2.76923V12H3.69231V11.0769H4.61538V10.1538H5.53846V7.38462H6.46154V10.1538H7.38462V11.0769H8.30769V12H9.23077V9.23077H12V8.30769H11.0769V7.38462H10.1538V6.46154H7.38462V5.53846H10.1538V4.61538H11.0769V3.69231H12V2.76923H9.23077V0H8.30769V0.923077H7.38462V1.84615H6.46154V4.61538H7.38462V5.53846H6.46154V6.46154H5.53846ZM5.53846 6.46154H4.61538V7.38462H3.69231V8.30769H2.76923V9.23077H3.69231V8.30769H4.61538V7.38462H5.53846V6.46154ZM8.30769 3.69231V4.61538H7.38462V3.69231H8.30769ZM8.30769 3.69231H9.23077V2.76923H8.30769V3.69231ZM7.38462 7.38462H6.46154V6.46154H7.38462V7.38462ZM8.30769 8.30769H7.38462V7.38462H8.30769V8.30769ZM8.30769 8.30769V9.23077H9.23077V8.30769H8.30769Z" fill="#222222"/>
</svg>
